HIERARCHY
ROOT Pelvis
{
	OFFSET 0.000000 0.000000 0.000000
	CHANNELS 6 Xposition Yposition Zposition Xrotation Yrotation Zrotation
	JOINT LeftUpLeg_virtual
	{
		OFFSET 0.000000 0.000000 0.000000
		CHANNELS 3 Xrotation Yrotation Zrotation
		JOINT LeftUpLeg
		{
			OFFSET 18.735201 -5.666702 -4.541200
			CHANNELS 3 Xrotation Yrotation Zrotation
			JOINT LeftLeg
			{
				OFFSET -0.021200 -31.938179 0.493100
				CHANNELS 3 Xrotation Yrotation Zrotation
				JOINT LeftFoot
				{
					OFFSET 0.021200 -31.938179 -4.336299
					CHANNELS 3 Xrotation Yrotation Zrotation
					JOINT LeftToeBase
					{
						OFFSET 0.943001 -26.722000 15.023500
						CHANNELS 3 Xrotation Yrotation Zrotation
						End Site
						{
							OFFSET 0 0 0
						}
					}
				}
			}
		}
	}
	JOINT RightUpLeg_virtual
	{
		OFFSET 0.000000 0.000000 0.000000
		CHANNELS 3 Xrotation Yrotation Zrotation
		JOINT RightUpLeg
		{
			OFFSET -18.735201 -5.666702 -4.541200
			CHANNELS 3 Xrotation Yrotation Zrotation
			JOINT RightLeg
			{
				OFFSET 0.018946 -31.938133 0.493100
				CHANNELS 3 Xrotation Yrotation Zrotation
				JOINT RightFoot
				{
					OFFSET -0.018946 -31.938126 -4.336299
					CHANNELS 3 Xrotation Yrotation Zrotation
					JOINT RightToeBase
					{
						OFFSET -0.943001 -26.722004 15.023500
						CHANNELS 3 Xrotation Yrotation Zrotation
						End Site
						{
							OFFSET 0 0 0
						}
					}
				}
			}
		}
	}
	JOINT Hips_virtual
	{
		OFFSET 0.000000 0.000000 0.000000
		CHANNELS 3 Xrotation Yrotation Zrotation
		JOINT Hips
		{
			OFFSET -0.000000 -0.000000 -0.000000
			CHANNELS 3 Xrotation Yrotation Zrotation
			JOINT Spine
			{
				OFFSET 0.000000 10.199997 -0.299500
				CHANNELS 3 Xrotation Yrotation Zrotation
				JOINT Spine1
				{
					OFFSET 0.000000 11.900002 -1.516600
					CHANNELS 3 Xrotation Yrotation Zrotation
					JOINT Spine2
					{
						OFFSET 0.000000 13.600006 -2.842500
						CHANNELS 3 Xrotation Yrotation Zrotation
						JOINT Neck_virtual
						{
							OFFSET 0.000000 0.000000 0.000000
							CHANNELS 3 Xrotation Yrotation Zrotation
							JOINT Neck
							{
								OFFSET 0.000000 9.624100 -2.890100
								CHANNELS 3 Xrotation Yrotation Zrotation
								JOINT Head
								{
									OFFSET 0.000000 14.068802 -1.351900
									CHANNELS 3 Xrotation Yrotation Zrotation
									End Site
									{
										OFFSET 0 0 0
									}
								}
							}
						}
						JOINT LeftShoulder_virtual
						{
							OFFSET 0.000000 0.000000 0.000000
							CHANNELS 3 Xrotation Yrotation Zrotation
							JOINT LeftShoulder
							{
								OFFSET 15.263000 10.923401 -0.547700
								CHANNELS 3 Xrotation Yrotation Zrotation
								JOINT LeftArm
								{
									OFFSET 25.438599 -2.830597 -13.032500
									CHANNELS 3 Xrotation Yrotation Zrotation
									JOINT LeftForeArm
									{
										OFFSET 29.960503 0.000000 0.000000
										CHANNELS 3 Xrotation Yrotation Zrotation
										JOINT LeftHand
										{
											OFFSET 27.849251 0.000000 0.000000
											CHANNELS 3 Xrotation Yrotation Zrotation
											End Site
											{
												OFFSET 0 0 0
											}
										}
									}
								}
							}
						}
						JOINT RightShoulder_virtual
						{
							OFFSET 0.000000 0.000000 0.000000
							CHANNELS 3 Xrotation Yrotation Zrotation
							JOINT RightShoulder
							{
								OFFSET -15.263000 10.923401 -0.547700
								CHANNELS 3 Xrotation Yrotation Zrotation
								JOINT RightArm
								{
									OFFSET -25.438599 -2.830597 -13.032500
									CHANNELS 3 Xrotation Yrotation Zrotation
									JOINT RightForeArm
									{
										OFFSET -29.960503 0.000000 0.000000
										CHANNELS 3 Xrotation Yrotation Zrotation
										JOINT RightHand
										{
											OFFSET -27.849251 0.000000 0.000000
											CHANNELS 3 Xrotation Yrotation Zrotation
											End Site
											{
												OFFSET 0 0 0
											}
										}
									}
								}
							}
						}
					}
				}
			}
		}
	}
}
MOTION
Frames: 4
Frame Time: 0.03333333
-2.110101 78.767830 8.464218 0.000000 0.000000 0.000000 2.167908 -56.621807 2.766463 -51.596427 -0.037815 32.440427 48.597247 -11.863049 1.054416 3.282861 -9.960008 -21.864539 0.000000 0.000000 0.000000 1.249100 -55.761934 2.070734 -37.905818 -10.023438 -41.821709 61.874322 -2.739325 4.396662 -23.895034 1.755566 20.131732 0.000000 0.000000 0.000000 1.642645 -56.204650 2.212865 -0.735278 -0.082171 0.074982 1.042249 1.891271 -2.319682 4.772269 8.021462 -4.286346 0.000000 0.000000 0.000000 1.809621 7.455276 -2.395306 3.700600 -3.787409 -2.414137 0.000000 0.000000 0.000000 4.704490 6.651946 -1.631436 -0.069852 -13.997806 -9.460486 6.337723 -11.457460 -25.962451 -118.314067 -76.124514 -119.242645 0.000000 0.000000 0.000000 2.752382 7.783530 -3.402259 3.156216 17.017585 -10.480171 -21.821809 27.221003 20.473297 -118.438991 85.114047 120.727063 0.000000 0.000000 0.000000 
-1.345426 79.118340 8.148079 0.000000 0.000000 0.000000 2.181362 -57.772431 2.502310 -50.947518 0.535213 33.834913 48.234823 -12.367792 0.885977 1.747268 -10.550575 -24.585589 0.000000 0.000000 0.000000 1.080977 -57.040023 1.764705 -39.207803 -8.325079 -41.148130 62.052781 -2.214286 3.569424 -20.198515 4.055297 21.372985 0.000000 0.000000 0.000000 1.731359 -57.557806 1.992865 -0.719974 -0.055465 0.024103 1.864318 2.626772 -2.535970 4.866932 6.997548 -3.659387 0.000000 0.000000 0.000000 1.979983 6.271726 -1.751509 2.991658 -3.381540 -2.599752 0.000000 0.000000 0.000000 5.071260 5.465801 -1.024783 -0.499500 -15.544080 -11.540187 -1.630205 -10.096830 -27.846978 -118.675111 -76.546080 -120.091828 0.000000 0.000000 0.000000 2.358984 6.418193 -2.775185 6.877822 20.410581 -6.690194 -14.116077 28.279731 15.686837 -133.774910 83.107980 137.086241 0.000000 0.000000 0.000000 
-0.684457 79.564705 7.827724 0.000000 0.000000 0.000000 1.871002 -59.670527 1.979513 -50.102812 1.575750 35.662463 48.343406 -12.592138 0.763394 0.213509 -10.642042 -26.813047 0.000000 0.000000 0.000000 0.625046 -59.011386 1.212495 -39.944029 -6.542529 -39.798016 61.490294 -1.922999 2.657151 -16.393912 6.484555 21.853364 0.000000 0.000000 0.000000 1.656343 -59.715258 1.763658 -0.741615 0.003229 0.003127 3.079719 3.190866 -3.153928 4.706761 5.863107 -3.269519 0.000000 0.000000 0.000000 1.951067 4.934626 -1.305413 2.288999 -2.898558 -2.654357 0.000000 0.000000 0.000000 5.056559 4.131156 -0.752802 -0.594130 -16.459434 -12.956106 -9.621613 -8.968900 -28.542814 -118.805786 -77.155265 -120.703199 0.000000 0.000000 0.000000 1.968076 4.946874 -2.496459 10.085366 21.962694 -5.446794 -9.735239 29.492607 14.083100 -137.762634 82.667064 141.489472 0.000000 0.000000 0.000000 
-0.174531 80.034698 7.560688 0.000000 0.000000 0.000000 1.115167 -62.406455 1.015486 -49.167025 2.900305 37.694219 49.028822 -12.394516 0.810923 -0.987601 -10.025354 -27.911539 0.000000 0.000000 0.000000 -0.186329 -61.707344 0.282503 -40.202101 -5.027855 -37.802471 60.180360 -2.033294 1.868525 -13.765395 8.402188 21.278645 0.000000 0.000000 0.000000 1.368849 -62.592823 1.394065 -0.795887 0.063018 -0.009310 4.432473 3.665465 -4.283913 4.361311 4.855491 -3.041766 0.000000 0.000000 0.000000 1.939090 3.687230 -1.033784 1.748869 -2.368009 -2.565823 0.000000 0.000000 0.000000 4.862852 2.961785 -0.751298 -0.337821 -16.929245 -13.441059 -16.956057 -7.833322 -27.232019 -120.167917 -77.690615 -122.452219 0.000000 0.000000 0.000000 1.532210 3.661438 -2.438200 12.714456 22.179462 -6.472732 -9.461689 33.312274 15.393484 -116.133829 85.372884 119.571532 0.000000 0.000000 0.000000 
